<?xml version="1.0" standalone="no"?>
<!DOCTYPE svg PUBLIC "-//W3C//DTD SVG 20010904//EN"
 "http://www.w3.org/TR/2001/REC-SVG-20010904/DTD/svg10.dtd">
<svg version="1.0" xmlns="http://www.w3.org/2000/svg"
 width="512.000000pt" height="512.000000pt" viewBox="0 0 512.000000 512.000000"
 preserveAspectRatio="xMidYMid meet">
<metadata>
Created by potrace 1.11, written by Peter Selinger 2001-2013
</metadata>
<g transform="translate(0.000000,512.000000) scale(0.100000,-0.100000)"
fill="#000000" stroke="none">
<path d="M160 3230 l0 -1751 62 -67 c34 -37 200 -211 368 -387 168 -176 432
-452 585 -613 153 -161 288 -295 299 -298 31 -7 3493 0 3501 8 9 9 20 3434 11
3481 -5 28 -25 57 -74 109 l-67 71 -5 -59 -5 -59 -355 -6 c-195 -4 -581 -7
-856 -8 l-501 -1 -7 -31 c-6 -29 -9 -666 -3 -671 1 -1 349 -5 772 -8 601 -4
775 -8 793 -18 l22 -13 0 -363 c0 -323 -2 -365 -16 -370 -9 -3 -363 -6 -789
-6 l-772 0 -7 -31 c-6 -29 -9 -986 -3 -991 1 -1 383 -5 849 -8 676 -4 850 -8
860 -18 10 -10 14 -95 16 -377 l3 -365 -1370 0 -1371 0 0 1998 c0 1098 4 2003
8 2010 5 7 24 17 43 22 21 6 402 10 1004 11 533 0 989 4 1013 7 l42 7 -261
273 -262 272 -1763 0 -1764 0 0 -1750z"/>
</g>
</svg>
